<svg width="16" height="18" viewBox="0 0 16 18" fill="none" xmlns="http://www.w3.org/2000/svg">
<path d="M1.8125 1.625C1.51413 1.625 1.22798 1.74353 1.017 1.9545C0.806026 2.16548 0.6875 2.45163 0.6875 2.75V3.875C0.6875 4.17337 0.806026 4.45952 1.017 4.6705C1.22798 4.88147 1.51413 5 1.8125 5H2.375V15.125C2.375 15.7217 2.61205 16.294 3.03401 16.716C3.45597 17.1379 4.02826 17.375 4.625 17.375H11.375C11.9717 17.375 12.544 17.1379 12.966 16.716C13.3879 16.294 13.625 15.7217 13.625 15.125V5H14.1875C14.4859 5 14.772 4.88147 14.983 4.6705C15.194 4.45952 15.3125 4.17337 15.3125 3.875V2.75C15.3125 2.45163 15.194 2.16548 14.983 1.9545C14.772 1.74353 14.4859 1.625 14.1875 1.625H10.25C10.25 1.32663 10.1315 1.04048 9.9205 0.829505C9.70952 0.618526 9.42337 0.5 9.125 0.5H6.875C6.57663 0.5 6.29048 0.618526 6.0795 0.829505C5.86853 1.04048 5.75 1.32663 5.75 1.625H1.8125ZM5.1875 6.125C5.33668 6.125 5.47976 6.18426 5.58525 6.28975C5.69074 6.39524 5.75 6.53832 5.75 6.6875V14.5625C5.75 14.7117 5.69074 14.8548 5.58525 14.9602C5.47976 15.0657 5.33668 15.125 5.1875 15.125C5.03832 15.125 4.89524 15.0657 4.78975 14.9602C4.68426 14.8548 4.625 14.7117 4.625 14.5625V6.6875C4.625 6.53832 4.68426 6.39524 4.78975 6.28975C4.89524 6.18426 5.03832 6.125 5.1875 6.125ZM8 6.125C8.14918 6.125 8.29226 6.18426 8.39775 6.28975C8.50324 6.39524 8.5625 6.53832 8.5625 6.6875V14.5625C8.5625 14.7117 8.50324 14.8548 8.39775 14.9602C8.29226 15.0657 8.14918 15.125 8 15.125C7.85082 15.125 7.70774 15.0657 7.60225 14.9602C7.49676 14.8548 7.4375 14.7117 7.4375 14.5625V6.6875C7.4375 6.53832 7.49676 6.39524 7.60225 6.28975C7.70774 6.18426 7.85082 6.125 8 6.125ZM11.375 6.6875V14.5625C11.375 14.7117 11.3157 14.8548 11.2102 14.9602C11.1048 15.0657 10.9617 15.125 10.8125 15.125C10.6633 15.125 10.5202 15.0657 10.4148 14.9602C10.3093 14.8548 10.25 14.7117 10.25 14.5625V6.6875C10.25 6.53832 10.3093 6.39524 10.4148 6.28975C10.5202 6.18426 10.6633 6.125 10.8125 6.125C10.9617 6.125 11.1048 6.18426 11.2102 6.28975C11.3157 6.39524 11.375 6.53832 11.375 6.6875Z" fill="#FF4F5A"/>
</svg>
