<svg width="93" height="90" viewBox="0 0 93 90" fill="none" xmlns="http://www.w3.org/2000/svg">
<path d="M73.175 28.8947C79.9545 28.8947 86.2335 30.4037 91.375 32.94V19.2632C91.375 15.6995 87.3255 12.8421 82.275 12.8421H64.075V6.42105C64.075 2.85737 60.0255 0 54.975 0H36.775C31.7245 0 27.675 2.85737 27.675 6.42105V12.8421H9.475C4.4245 12.8421 0.4205 15.6995 0.4205 19.2632L0.375 54.5789C0.375 58.1426 4.4245 61 9.475 61H44.419C42.1105 57.576 41.0683 53.7954 41.3894 50.0105C41.7104 46.2256 43.3844 42.5596 46.2553 39.3544C49.1261 36.1492 53.1003 33.5091 57.8075 31.6801C62.5146 29.8512 67.8014 28.8929 73.175 28.8947ZM36.775 6.42105H54.975V12.8421H36.775V6.42105Z" fill="#FF4F5A"/>
<path d="M69.3958 44.5C56.8608 44.5 46.6875 54.6733 46.6875 67.2083C46.6875 79.7433 56.8608 89.9167 69.3958 89.9167C81.9308 89.9167 92.1042 79.7433 92.1042 67.2083C92.1042 54.6733 81.9308 44.5 69.3958 44.5ZM76.8896 77.8812L67.125 68.1167V53.5833H71.6667V66.2546L80.0687 74.6567L76.8896 77.8812Z" fill="#FF4F5A"/>
</svg>
