<svg width="30" height="30" viewBox="0 0 30 30" fill="none" xmlns="http://www.w3.org/2000/svg">
<path d="M27.375 7.43742C27.375 6.47601 26.9931 5.55397 26.3133 4.87415C25.6334 4.19434 24.7114 3.81242 23.75 3.81242H22.8438V2.93166C22.8438 2.44398 22.4688 2.02541 21.9811 2.00105C21.8586 1.99515 21.7361 2.01418 21.6212 2.057C21.5062 2.09982 21.4011 2.16554 21.3123 2.25017C21.2235 2.3348 21.1528 2.43657 21.1045 2.54933C21.0562 2.6621 21.0313 2.78349 21.0312 2.90617V3.81242H8.34375V2.93166C8.34375 2.44398 7.96879 2.02541 7.48111 2.00105C7.35858 1.99515 7.23612 2.01418 7.12116 2.057C7.0062 2.09982 6.90114 2.16554 6.81232 2.25017C6.72351 2.3348 6.65281 2.43657 6.60449 2.54933C6.55618 2.6621 6.53126 2.78349 6.53125 2.90617V3.81242H5.625C4.66359 3.81242 3.74156 4.19434 3.06174 4.87415C2.38192 5.55397 2 6.47601 2 7.43742V8.1171C2 8.17719 2.02387 8.23482 2.06636 8.27731C2.10885 8.3198 2.16647 8.34367 2.22656 8.34367H27.1484C27.2085 8.34367 27.2662 8.3198 27.3086 8.27731C27.3511 8.23482 27.375 8.17719 27.375 8.1171V7.43742ZM2 23.7499C2 24.7113 2.38192 25.6334 3.06174 26.3132C3.74156 26.993 4.66359 27.3749 5.625 27.3749H23.75C24.7114 27.3749 25.6334 26.993 26.3133 26.3132C26.9931 25.6334 27.375 24.7113 27.375 23.7499V10.3827C27.375 10.3226 27.3511 10.265 27.3086 10.2225C27.2662 10.18 27.2085 10.1562 27.1484 10.1562H2.22656C2.16647 10.1562 2.10885 10.18 2.06636 10.2225C2.02387 10.265 2 10.3226 2 10.3827V23.7499Z" fill="#FF4F5A"/>
</svg>
