<svg width="30" height="31" viewBox="0 0 30 31" fill="none" xmlns="http://www.w3.org/2000/svg">
<path d="M23.75 4.5623H22.8438V3.68153C22.8438 3.19386 22.4688 2.77528 21.9811 2.75093C21.8586 2.74502 21.7361 2.76406 21.6212 2.80688C21.5062 2.8497 21.4011 2.91542 21.3123 3.00005C21.2235 3.08467 21.1528 3.18645 21.1045 3.29921C21.0562 3.41197 21.0313 3.53337 21.0312 3.65605V4.5623H8.34375V3.68153C8.34375 3.19386 7.96879 2.77528 7.48111 2.75093C7.35858 2.74502 7.23612 2.76406 7.12116 2.80688C7.0062 2.8497 6.90114 2.91542 6.81232 3.00005C6.72351 3.08467 6.65281 3.18645 6.60449 3.29921C6.55618 3.41197 6.53126 3.53337 6.53125 3.65605V4.5623H5.625C4.66359 4.5623 3.74156 4.94421 3.06174 5.62403C2.38192 6.30385 2 7.22589 2 8.1873V8.86698C2 8.92707 2.02387 8.9847 2.06636 9.02719C2.10885 9.06968 2.16647 9.09355 2.22656 9.09355H27.1484C27.2085 9.09355 27.2662 9.06968 27.3086 9.02719C27.3511 8.9847 27.375 8.92707 27.375 8.86698V8.1873C27.375 7.22589 26.9931 6.30385 26.3133 5.62403C25.6334 4.94421 24.7114 4.5623 23.75 4.5623ZM27.1484 10.906H2.22656C2.16647 10.906 2.10885 10.9299 2.06636 10.9724C2.02387 11.0149 2 11.0725 2 11.1326V24.4998C2 25.4612 2.38192 26.3832 3.06174 27.0631C3.74156 27.7429 4.66359 28.1248 5.625 28.1248H23.75C24.7114 28.1248 25.6334 27.7429 26.3133 27.0631C26.9931 26.3832 27.375 25.4612 27.375 24.4998V11.1326C27.375 11.0725 27.3511 11.0149 27.3086 10.9724C27.2662 10.9299 27.2085 10.906 27.1484 10.906ZM13.7575 23.6559C13.0681 24.2002 12.129 24.4998 11.1123 24.4998C9.53377 24.4998 8.36641 23.4712 7.84645 22.591C7.72402 22.384 7.68883 22.1368 7.74864 21.9039C7.80844 21.671 7.95833 21.4713 8.16533 21.3489C8.37234 21.2264 8.6195 21.1913 8.85244 21.2511C9.08538 21.3109 9.28503 21.4608 9.40746 21.6678C9.46863 21.772 10.039 22.6873 11.1123 22.6873C12.056 22.6873 13.1582 22.2744 13.1582 21.1116C13.1582 20.7575 13.0891 20.2648 12.7617 19.9289C12.278 19.4339 11.4731 19.2113 11.0563 19.2113C10.8159 19.2113 10.5854 19.1158 10.4155 18.9458C10.2455 18.7759 10.15 18.5454 10.15 18.305C10.15 18.0647 10.2455 17.8341 10.4155 17.6642C10.5854 17.4942 10.8159 17.3988 11.0563 17.3988C11.331 17.3988 12.0424 17.2515 12.4881 16.7955C12.6087 16.6769 12.7039 16.535 12.7679 16.3784C12.8319 16.2218 12.8633 16.0539 12.8603 15.8848C12.8603 14.569 11.2387 14.531 11.054 14.531C10.0719 14.531 9.70596 15.132 9.69066 15.1575C9.63179 15.2631 9.55239 15.3558 9.45714 15.4302C9.36189 15.5046 9.25272 15.5592 9.13605 15.5908C9.01937 15.6224 8.89756 15.6303 8.77778 15.6141C8.658 15.5979 8.54267 15.5579 8.43857 15.4965C8.33448 15.4351 8.24373 15.3534 8.17166 15.2564C8.09959 15.1594 8.04766 15.0489 8.01893 14.9315C7.99019 14.8141 7.98524 14.6921 8.00435 14.5728C8.02346 14.4534 8.06626 14.3391 8.13021 14.2365C8.56295 13.5002 9.55869 12.7185 11.054 12.7185C11.9852 12.7185 12.8529 12.9887 13.4969 13.4787C14.2553 14.0564 14.6728 14.9105 14.6728 15.8848C14.6753 16.2887 14.5979 16.689 14.4448 17.0628C14.2918 17.4366 14.0663 17.7764 13.7812 18.0626C13.7161 18.1294 13.6476 18.1917 13.5779 18.2523C13.7481 18.3752 13.9076 18.5122 14.0548 18.6618C14.6529 19.2736 14.969 20.1203 14.969 21.1116C14.9707 22.1345 14.5397 23.0379 13.7575 23.6559ZM21.0312 23.367C21.0312 23.6073 20.9358 23.8378 20.7658 24.0078C20.5959 24.1778 20.3654 24.2732 20.125 24.2732C19.8846 24.2732 19.6541 24.1778 19.4842 24.0078C19.3142 23.8378 19.2188 23.6073 19.2188 23.367V15.4537L17.9438 16.3934C17.848 16.4641 17.7392 16.5152 17.6236 16.5438C17.5081 16.5724 17.388 16.578 17.2703 16.5602C17.1526 16.5424 17.0395 16.5016 16.9376 16.4402C16.8357 16.3787 16.7468 16.2977 16.6762 16.2019C16.6055 16.1061 16.5544 15.9974 16.5258 15.8818C16.4971 15.7663 16.4916 15.6462 16.5093 15.5285C16.5271 15.4108 16.5679 15.2977 16.6294 15.1958C16.6908 15.0938 16.7718 15.005 16.8676 14.9343L19.3269 13.1218C19.4827 13.0071 19.671 12.9451 19.8645 12.9451H20.125C20.3654 12.9451 20.5959 13.0406 20.7658 13.2105C20.9358 13.3805 21.0312 13.611 21.0312 13.8514V23.367Z" fill="#6B6B6B"/>
</svg>
