<svg width="30" height="30" viewBox="0 0 30 30" fill="none" xmlns="http://www.w3.org/2000/svg">
<path d="M27.375 7.81229C27.375 6.85089 26.9931 5.92885 26.3133 5.24903C25.6334 4.56921 24.7114 4.1873 23.75 4.1873H22.8438V3.30653C22.8438 2.81886 22.4688 2.40028 21.9811 2.37593C21.8586 2.37002 21.7361 2.38906 21.6212 2.43188C21.5062 2.4747 21.4011 2.54042 21.3123 2.62505C21.2235 2.70967 21.1528 2.81145 21.1045 2.92421C21.0562 3.03697 21.0313 3.15837 21.0312 3.28105V4.1873H8.34375V3.30653C8.34375 2.81886 7.96879 2.40028 7.48111 2.37593C7.35858 2.37002 7.23612 2.38906 7.12116 2.43188C7.0062 2.4747 6.90114 2.54042 6.81232 2.62505C6.72351 2.70967 6.65281 2.81145 6.60449 2.92421C6.55618 3.03697 6.53126 3.15837 6.53125 3.28105V4.1873H5.625C4.66359 4.1873 3.74156 4.56921 3.06174 5.24903C2.38192 5.92885 2 6.85089 2 7.81229V8.49198C2 8.55207 2.02387 8.6097 2.06636 8.65219C2.10885 8.69468 2.16647 8.71854 2.22656 8.71854H27.1484C27.2085 8.71854 27.2662 8.69468 27.3086 8.65219C27.3511 8.6097 27.375 8.55207 27.375 8.49198V7.81229ZM2 24.1248C2 25.0862 2.38192 26.0082 3.06174 26.6881C3.74156 27.3679 4.66359 27.7498 5.625 27.7498H23.75C24.7114 27.7498 25.6334 27.3679 26.3133 26.6881C26.9931 26.0082 27.375 25.0862 27.375 24.1248V10.701C27.375 10.6559 27.3571 10.6127 27.3252 10.5808C27.2934 10.5489 27.2501 10.531 27.2051 10.531H2.16992C2.12486 10.531 2.08164 10.5489 2.04977 10.5808C2.0179 10.6127 2 10.6559 2 10.701V24.1248ZM21.4844 12.3435C21.7532 12.3435 22.0161 12.4233 22.2396 12.5726C22.4632 12.722 22.6374 12.9343 22.7403 13.1827C22.8432 13.4311 22.8701 13.7044 22.8176 13.9681C22.7652 14.2318 22.6357 14.474 22.4456 14.6641C22.2555 14.8543 22.0133 14.9837 21.7496 15.0362C21.4859 15.0886 21.2126 15.0617 20.9642 14.9588C20.7158 14.8559 20.5035 14.6817 20.3541 14.4581C20.2047 14.2346 20.125 13.9718 20.125 13.7029C20.125 13.3424 20.2682 12.9966 20.5232 12.7417C20.7781 12.4868 21.1238 12.3435 21.4844 12.3435ZM21.4844 16.8748C21.7532 16.8748 22.0161 16.9545 22.2396 17.1039C22.4632 17.2533 22.6374 17.4656 22.7403 17.714C22.8432 17.9624 22.8701 18.2357 22.8176 18.4994C22.7652 18.7631 22.6357 19.0053 22.4456 19.1954C22.2555 19.3855 22.0133 19.515 21.7496 19.5674C21.4859 19.6199 21.2126 19.593 20.9642 19.4901C20.7158 19.3872 20.5035 19.2129 20.3541 18.9894C20.2047 18.7658 20.125 18.503 20.125 18.2342C20.125 17.8736 20.2682 17.5279 20.5232 17.2729C20.7781 17.018 21.1238 16.8748 21.4844 16.8748ZM16.9531 12.3435C17.222 12.3435 17.4848 12.4233 17.7084 12.5726C17.9319 12.722 18.1061 12.9343 18.209 13.1827C18.3119 13.4311 18.3388 13.7044 18.2864 13.9681C18.2339 14.2318 18.1045 14.474 17.9143 14.6641C17.7242 14.8543 17.482 14.9837 17.2183 15.0362C16.9546 15.0886 16.6813 15.0617 16.4329 14.9588C16.1845 14.8559 15.9722 14.6817 15.8228 14.4581C15.6735 14.2346 15.5938 13.9718 15.5938 13.7029C15.5938 13.3424 15.737 12.9966 15.9919 12.7417C16.2468 12.4868 16.5926 12.3435 16.9531 12.3435ZM16.9531 16.8748C17.222 16.8748 17.4848 16.9545 17.7084 17.1039C17.9319 17.2533 18.1061 17.4656 18.209 17.714C18.3119 17.9624 18.3388 18.2357 18.2864 18.4994C18.2339 18.7631 18.1045 19.0053 17.9143 19.1954C17.7242 19.3855 17.482 19.515 17.2183 19.5674C16.9546 19.6199 16.6813 19.593 16.4329 19.4901C16.1845 19.3872 15.9722 19.2129 15.8228 18.9894C15.6735 18.7658 15.5938 18.503 15.5938 18.2342C15.5938 17.8736 15.737 17.5279 15.9919 17.2729C16.2468 17.018 16.5926 16.8748 16.9531 16.8748ZM16.9531 21.406C17.222 21.406 17.4848 21.4858 17.7084 21.6351C17.9319 21.7845 18.1061 21.9968 18.209 22.2452C18.3119 22.4936 18.3388 22.7669 18.2864 23.0306C18.2339 23.2943 18.1045 23.5365 17.9143 23.7266C17.7242 23.9168 17.482 24.0462 17.2183 24.0987C16.9546 24.1511 16.6813 24.1242 16.4329 24.0213C16.1845 23.9184 15.9722 23.7442 15.8228 23.5206C15.6735 23.2971 15.5938 23.0343 15.5938 22.7654C15.5938 22.4049 15.737 22.0591 15.9919 21.8042C16.2468 21.5493 16.5926 21.406 16.9531 21.406ZM12.4219 16.8748C12.6907 16.8748 12.9536 16.9545 13.1771 17.1039C13.4007 17.2533 13.5749 17.4656 13.6778 17.714C13.7807 17.9624 13.8076 18.2357 13.7551 18.4994C13.7027 18.7631 13.5732 19.0053 13.3831 19.1954C13.193 19.3855 12.9508 19.515 12.6871 19.5674C12.4234 19.6199 12.1501 19.593 11.9017 19.4901C11.6533 19.3872 11.441 19.2129 11.2916 18.9894C11.1422 18.7658 11.0625 18.503 11.0625 18.2342C11.0625 17.8736 11.2057 17.5279 11.4607 17.2729C11.7156 17.018 12.0613 16.8748 12.4219 16.8748ZM12.4219 21.406C12.6907 21.406 12.9536 21.4858 13.1771 21.6351C13.4007 21.7845 13.5749 21.9968 13.6778 22.2452C13.7807 22.4936 13.8076 22.7669 13.7551 23.0306C13.7027 23.2943 13.5732 23.5365 13.3831 23.7266C13.193 23.9168 12.9508 24.0462 12.6871 24.0987C12.4234 24.1511 12.1501 24.1242 11.9017 24.0213C11.6533 23.9184 11.441 23.7442 11.2916 23.5206C11.1422 23.2971 11.0625 23.0343 11.0625 22.7654C11.0625 22.4049 11.2057 22.0591 11.4607 21.8042C11.7156 21.5493 12.0613 21.406 12.4219 21.406ZM7.89062 16.8748C8.15948 16.8748 8.4223 16.9545 8.64585 17.1039C8.8694 17.2533 9.04364 17.4656 9.14652 17.714C9.24941 17.9624 9.27633 18.2357 9.22388 18.4994C9.17143 18.7631 9.04196 19.0053 8.85185 19.1954C8.66174 19.3855 8.41952 19.515 8.15583 19.5674C7.89213 19.6199 7.61881 19.593 7.37041 19.4901C7.12202 19.3872 6.90972 19.2129 6.76035 18.9894C6.61098 18.7658 6.53125 18.503 6.53125 18.2342C6.53125 17.8736 6.67447 17.5279 6.9294 17.2729C7.18433 17.018 7.5301 16.8748 7.89062 16.8748ZM7.89062 21.406C8.15948 21.406 8.4223 21.4858 8.64585 21.6351C8.8694 21.7845 9.04364 21.9968 9.14652 22.2452C9.24941 22.4936 9.27633 22.7669 9.22388 23.0306C9.17143 23.2943 9.04196 23.5365 8.85185 23.7266C8.66174 23.9168 8.41952 24.0462 8.15583 24.0987C7.89213 24.1511 7.61881 24.1242 7.37041 24.0213C7.12202 23.9184 6.90972 23.7442 6.76035 23.5206C6.61098 23.2971 6.53125 23.0343 6.53125 22.7654C6.53125 22.4049 6.67447 22.0591 6.9294 21.8042C7.18433 21.5493 7.5301 21.406 7.89062 21.406Z" fill="#6B6B6B"/>
</svg>
