<svg width="97" height="90" viewBox="0 0 97 90" fill="none" xmlns="http://www.w3.org/2000/svg">
<path d="M82.9107 40.9091V16.3636C82.9107 11.8636 78.7964 8.18182 73.7679 8.18182H69.1964V4.09091C69.1964 1.84091 67.1393 0 64.625 0C62.1107 0 60.0536 1.84091 60.0536 4.09091V8.18182H23.4821V4.09091C23.4821 1.84091 21.425 0 18.9107 0C16.3964 0 14.3393 1.84091 14.3393 4.09091V8.18182H9.76786C4.73929 8.18182 0.625 11.8636 0.625 16.3636V73.6364C0.625 78.1364 4.73929 81.8182 9.76786 81.8182H41.7679V73.6364H9.76786V32.7273H73.7679V40.9091H82.9107ZM56.0764 73.6364C53.5621 73.6364 51.9164 75.9273 52.9679 77.9727C54.7717 81.5575 57.6943 84.5997 61.3843 86.7334C65.0743 88.8671 69.3746 90.0014 73.7679 90C86.385 90 96.625 80.8364 96.625 69.5455C96.625 58.2545 86.385 49.0909 73.7679 49.0909C67.5507 49.0909 61.8821 51.3409 57.7679 54.9409V52.1591C57.7679 50.4818 56.2136 49.0909 54.3393 49.0909C52.465 49.0909 50.9107 50.4818 50.9107 52.1591V61.3636C50.9107 63.6136 52.9679 65.4545 55.4821 65.4545H65.7679C67.6421 65.4545 69.1964 64.0636 69.1964 62.3864C69.1964 60.7091 67.6421 59.3182 65.7679 59.3182H62.5679C65.4479 56.7818 69.425 55.2273 73.7679 55.2273C82.5907 55.2273 89.7679 61.65 89.7679 69.5455C89.7679 77.4409 82.5907 83.8636 73.7679 83.8636C67.2764 83.8636 61.6993 80.3864 59.185 75.4364C58.9161 74.9 58.4795 74.4447 57.9279 74.1253C57.3764 73.8059 56.7334 73.6361 56.0764 73.6364Z" fill="#FF4F5A"/>
</svg>
