<svg width="42" height="42" viewBox="0 0 42 42" fill="none" xmlns="http://www.w3.org/2000/svg">
<path d="M21 42C32.598 42 42 32.598 42 21C42 9.402 32.598 0 21 0C9.402 0 0 9.402 0 21C0 32.598 9.402 42 21 42ZM19.5 13.5C19.5 13.1022 19.658 12.7206 19.9393 12.4393C20.2206 12.158 20.6022 12 21 12C21.3978 12 21.7794 12.158 22.0607 12.4393C22.342 12.7206 22.5 13.1022 22.5 13.5V19.5H28.5C28.8978 19.5 29.2794 19.658 29.5607 19.9393C29.842 20.2206 30 20.6022 30 21C30 21.3978 29.842 21.7794 29.5607 22.0607C29.2794 22.342 28.8978 22.5 28.5 22.5H22.5V28.5C22.5 28.8978 22.342 29.2794 22.0607 29.5607C21.7794 29.842 21.3978 30 21 30C20.6022 30 20.2206 29.842 19.9393 29.5607C19.658 29.2794 19.5 28.8978 19.5 28.5V22.5H13.5C13.1022 22.5 12.7206 22.342 12.4393 22.0607C12.158 21.7794 12 21.3978 12 21C12 20.6022 12.158 20.2206 12.4393 19.9393C12.7206 19.658 13.1022 19.5 13.5 19.5H19.5V13.5Z" fill="#FF4F5A"/>
</svg>
