<svg width="90" height="90" viewBox="0 0 90 90" fill="none" xmlns="http://www.w3.org/2000/svg">
<path d="M88.1514 12.6128L76.9842 1.42798C76.0243 0.511353 74.749 0 73.4228 0C72.0966 0 70.8212 0.511353 69.8614 1.42798L59.9316 11.4037H6.6613C5.06037 11.4037 3.52502 12.0406 2.39299 13.1745C1.26097 14.3083 0.625 15.8461 0.625 17.4495V83.9541C0.625 85.5576 1.26097 87.0954 2.39299 88.2292C3.52502 89.363 5.06037 90 6.6613 90H73.0606C74.6615 90 76.1969 89.363 77.3289 88.2292C78.4609 87.0954 79.0969 85.5576 79.0969 83.9541V28.8158L88.1514 19.747C89.095 18.8004 89.625 17.5175 89.625 16.1799C89.625 14.8423 89.095 13.5594 88.1514 12.6128ZM45.3842 54.1177L32.7381 56.9291L35.7563 44.3839L64.5796 15.4544L74.3282 25.2185L45.3842 54.1177ZM77.5878 21.7723L67.8392 12.0083L73.4228 6.41582L83.1714 16.1799L77.5878 21.7723Z" fill="#FF4F5A"/>
</svg>
