<svg width="98" height="90" viewBox="0 0 98 90" fill="none" xmlns="http://www.w3.org/2000/svg">
<path d="M15.1924 0C11.3952 0 7.75349 1.28404 5.06846 3.56964C2.38343 5.85524 0.875 8.95517 0.875 12.1875V77.8125C0.875 81.0448 2.38343 84.1448 5.06846 86.4304C7.75349 88.716 11.3952 90 15.1924 90H57.3427L47.8404 81.9113C46.92 81.1278 46.1898 80.1976 45.6917 79.1739C45.1936 78.1502 44.9372 77.053 44.9372 75.945C44.9372 74.837 45.1936 73.7398 45.6917 72.7161C46.1898 71.6924 46.92 70.7622 47.8404 69.9787C48.7608 69.1953 49.8535 68.5737 51.0561 68.1497C52.2587 67.7257 53.5476 67.5074 54.8493 67.5074C56.151 67.5074 57.4399 67.7257 58.6425 68.1497C59.8451 68.5737 60.9378 69.1953 61.8582 69.9787L68.0565 75.255L87.4797 58.7213C87.9466 58.3238 88.4489 57.9712 88.9819 57.6712V12.1875C88.9819 8.95517 87.4735 5.85524 84.7884 3.56964C82.1034 1.28404 78.4617 0 74.6645 0H15.1924ZM29.5097 25.3125C29.5097 26.5557 28.9296 27.748 27.8969 28.6271C26.8642 29.5061 25.4635 30 24.0031 30C22.5426 30 21.142 29.5061 20.1092 28.6271C19.0765 27.748 18.4964 26.5557 18.4964 25.3125C18.4964 24.0693 19.0765 22.877 20.1092 21.9979C21.142 21.1189 22.5426 20.625 24.0031 20.625C25.4635 20.625 26.8642 21.1189 27.8969 21.9979C28.9296 22.877 29.5097 24.0693 29.5097 25.3125ZM24.0031 49.6875C22.5426 49.6875 21.142 49.1936 20.1092 48.3146C19.0765 47.4355 18.4964 46.2432 18.4964 45C18.4964 43.7568 19.0765 42.5645 20.1092 41.6854C21.142 40.8064 22.5426 40.3125 24.0031 40.3125C25.4635 40.3125 26.8642 40.8064 27.8969 41.6854C28.9296 42.5645 29.5097 43.7568 29.5097 45C29.5097 46.2432 28.9296 47.4355 27.8969 48.3146C26.8642 49.1936 25.4635 49.6875 24.0031 49.6875ZM24.0031 69.375C22.5426 69.375 21.142 68.8811 20.1092 68.0021C19.0765 67.123 18.4964 65.9307 18.4964 64.6875C18.4964 63.4443 19.0765 62.252 20.1092 61.3729C21.142 60.4939 22.5426 60 24.0031 60C25.4635 60 26.8642 60.4939 27.8969 61.3729C28.9296 62.252 29.5097 63.4443 29.5097 64.6875C29.5097 65.9307 28.9296 67.123 27.8969 68.0021C26.8642 68.8811 25.4635 69.375 24.0031 69.375ZM39.4218 22.5H68.0565C68.9328 22.5 69.7732 22.7963 70.3928 23.3238C71.0124 23.8512 71.3605 24.5666 71.3605 25.3125C71.3605 26.0584 71.0124 26.7738 70.3928 27.3012C69.7732 27.8287 68.9328 28.125 68.0565 28.125H39.4218C38.5455 28.125 37.7051 27.8287 37.0855 27.3012C36.4659 26.7738 36.1178 26.0584 36.1178 25.3125C36.1178 24.5666 36.4659 23.8512 37.0855 23.3238C37.7051 22.7963 38.5455 22.5 39.4218 22.5ZM36.1178 45C36.1178 44.2541 36.4659 43.5387 37.0855 43.0113C37.7051 42.4838 38.5455 42.1875 39.4218 42.1875H68.0565C68.9328 42.1875 69.7732 42.4838 70.3928 43.0113C71.0124 43.5387 71.3605 44.2541 71.3605 45C71.3605 45.7459 71.0124 46.4613 70.3928 46.9887C69.7732 47.5162 68.9328 47.8125 68.0565 47.8125H39.4218C38.5455 47.8125 37.7051 47.5162 37.0855 46.9887C36.4659 46.4613 36.1178 45.7459 36.1178 45ZM39.4218 61.875H68.0565C68.9328 61.875 69.7732 62.1713 70.3928 62.6988C71.0124 63.2262 71.3605 63.9416 71.3605 64.6875C71.3605 65.4334 71.0124 66.1488 70.3928 66.6762C69.7732 67.2037 68.9328 67.5 68.0565 67.5H39.4218C38.5455 67.5 37.7051 67.2037 37.0855 66.6762C36.4659 66.1488 36.1178 65.4334 36.1178 64.6875C36.1178 63.9416 36.4659 63.2262 37.0855 62.6988C37.7051 62.1713 38.5455 61.875 39.4218 61.875ZM70.3913 89.175L96.8234 66.675C97.148 66.4175 97.4084 66.107 97.589 65.762C97.7696 65.417 97.8667 65.0446 97.8745 64.667C97.8823 64.2893 97.8007 63.9142 97.6345 63.564C97.4684 63.2138 97.221 62.8957 96.9073 62.6286C96.5935 62.3615 96.2198 62.151 95.8084 62.0095C95.397 61.8681 94.9563 61.7986 94.5127 61.8053C94.0691 61.8119 93.6316 61.8946 93.2263 62.0483C92.821 62.202 92.4562 62.4237 92.1537 62.7L68.0565 83.2125L57.1841 73.9575C56.5578 73.4607 55.7294 73.1902 54.8734 73.2031C54.0174 73.216 53.2008 73.5111 52.5954 74.0264C51.9901 74.5417 51.6433 75.2369 51.6282 75.9655C51.6131 76.6942 51.9308 77.3993 52.5145 77.9325L65.7217 89.175C66.3412 89.7017 67.1809 89.9975 68.0565 89.9975C68.9321 89.9975 69.7718 89.7017 70.3913 89.175Z" fill="#FF4F5A"/>
</svg>
